<?xml version="1.0" encoding="UTF-8"?>
<svg id="Layer_2" data-name="Layer 2" xmlns="http://www.w3.org/2000/svg" viewBox="0 0 152.28 151.25">
  <defs>
    <style>
      .cls-1 {
        fill: #22c55e;
      }
    </style>
  </defs>
  <g id="Layer_1-2" data-name="Layer 1">
    <g>
      <g>
        <path class="cls-1" d="m76.44,151.12c-27.75-.07-53.78-17.63-63.25-42.08-2.49-6.42-1.59-7.52,5.03-7.91,5.66-.34,8.94,1.53,11.68,6.84,8.47,16.4,22.36,25,40.73,27.3,25.8,3.22,46.43-13.88,53.24-31.12,1.83-4.64,11.11-6.88,14.87-3.82,1.89,1.54.98,3.34.38,5.01-8.22,23.01-24.31,37.5-47.82,43.81-5.13,1.38-10.35,2.5-14.86,1.98Z"/>
        <path class="cls-1" d="m76.3,133.04c-25,.05-46.65-19.61-48.53-44.03-.24-3.15-.54-6.08,3.82-6.66,5.99-.8,8.34.39,9.17,5.35,4.49,26.92,35.28,37.68,54.99,23.29,7.67-5.6,13.1-12.81,12.89-22.95-.08-3.61,1.45-4.94,5.07-5.02,11.46-.25,12.49.91,9.75,12.01-5.22,21.13-26.12,37.97-47.16,38.01Z"/>
        <path class="cls-1" d="m70.76,64.04c0-6.13-.02-12.27,0-18.4,0-1.89.08-3.65,2.79-3.74,2.5-.09,3.91.95,3.97,3.33.3,2.39.4,34.58.16,37.98-.2,2.83-.5,4.06-3.35,4.02-2.82-.04-3.66-1.83-3.66-4.29,0-6.3,0-12.6,0-18.9h.07Z"/>
        <path class="cls-1" d="m103.01,93.73c-.06,2.85-.47,5.13-3.6,5.19-3.47.07-4.79-2.47-4.68-5.78.35-10.1.68-20.2,1.01-30.3.08-2.4.74-4.34,3.64-4.28,2.59.06,4.09,1.62,4.16,4.06.16,5.47-.43,26.31-.53,31.12Z"/>
        <path class="cls-1" d="m66.02,92.75c.03,1.26-.22,2.64-.42,3.06-1.67,3.45-6.87,1.84-6.87-1.24,0-10.77.03-21.55.04-32.32,0-2.59,1.17-4.12,3.85-4.11,2.81,0,3.31,2.09,3.39,4.17.3,7.42-.06,28.18,0,30.45Z"/>
        <path class="cls-1" d="m90.73,98.17c.03,2.9-1.19,4.3-3.76,4.41-2.78.12-4.3-1.64-4.37-4.35-.18-6.79-.24-13.59-.32-20.38-.03-2.6,1.43-4.03,3.91-4.27,2.61-.25,4.21,1.23,4.36,3.71.22,3.63.15,17.56.18,20.88Z"/>
        <path class="cls-1" d="m45.88,82.81c0-2.98-.12-5.96.04-8.93.14-2.75,1.86-4.24,4.57-4.16,2.53.08,3.27,1.97,3.28,4.15.04,6.12.06,12.24-.02,18.36-.04,2.7-1.53,4.5-4.28,4.47-2.67-.04-3.58-2.07-3.63-4.45-.07-3.14-.02-6.29-.02-9.43.02,0,.04,0,.06,0Z"/>
      </g>
      <g>
        <path class="cls-1" d="m136.03,87.31c-.23-4.11.04-17.6-.31-24.87-2.33-24.84-15.71-41.76-38.36-50.72-22.66-8.96-44.07-5.42-62.81,10.65-12.49,10.71-19.29,24.35-19.53,40.97-.14,9.64-.08,19.28-.17,28.93-.02,1.97.25,4.28-1.77,5.4-2.43,1.35-4.04-.8-5.65-2.07-8.74-6.88-9.96-19.09-2.6-28.48,2.08-2.65,3.04-5.36,3.43-8.56C14.26,9.94,69.4-15.79,110.85,10.48c18.1,11.47,28.86,27.51,32.17,48.6.36,2.28,1.47,3.93,3,5.55,10.08,10.66,7.73,24.17-5.31,32.88-2.8,1.87-4.42.23-4.64-2.72-.19-2.48-.04-4.98-.04-7.47Z"/>
        <path class="cls-1" d="m127.34,65.84c.02-1.93.5-3.87,2.89-3.83,2.2.04,3.15,1.82,3.16,3.77.09,9.24.11,18.48.02,27.72-.02,2.1-.98,4.17-3.42,4.1-2.73-.08-2.68-2.47-2.7-4.47-.04-4.3,0-22.49.04-27.29Z"/>
        <path class="cls-1" d="m17.96,65.97c0-1.78.72-3.66,2.79-3.88,2.3-.25,3.27,1.54,3.29,3.52.08,9.97.06,19.94.02,29.91,0,1.91-.92,3.17-3.05,3.1-2.78-.08-2.9-2.52-2.96-4.69-.12-3.89-.11-23.63-.09-27.96Z"/>
      </g>
    </g>
  </g>
</svg>