<svg xmlns="http://www.w3.org/2000/svg" viewBox="0 0 24 24" fill="none">
  <circle cx="12" cy="12" r="11" fill="#1DB954"/>
  <path d="M17.9 10.9C14.7 9 9.35 8.8 6.3 9.75C5.8 9.9 5.3 9.6 5.15 9.15C5 8.65 5.3 8.15 5.75 8C9.3 6.95 15.15 7.15 18.85 9.35C19.3 9.6 19.45 10.15 19.2 10.6C18.95 11 18.4 11.15 17.9 10.9ZM17.8 13.9C17.6 14.25 17.15 14.35 16.8 14.15C14.15 12.45 9.85 11.9 6.8 12.85C6.4 12.95 5.95 12.75 5.85 12.35C5.75 11.95 5.95 11.5 6.35 11.4C9.85 10.35 14.6 10.95 17.55 12.9C17.9 13.1 18 13.55 17.8 13.9ZM16.6 16.8C16.4 17.15 16.05 17.25 15.7 17.05C13.4 15.45 10.45 15.15 6.95 15.85C6.6 15.95 6.3 15.7 6.2 15.45C6.1 15.1 6.35 14.8 6.6 14.7C10.45 13.95 13.75 14.3 16.35 16.05C16.7 16.2 16.8 16.55 16.6 16.8Z" fill="white"/>
</svg> 